<?xml version="1.0" standalone="no"?>
<!DOCTYPE svg PUBLIC "-//W3C//DTD SVG 20010904//EN"
 "http://www.w3.org/TR/2001/REC-SVG-20010904/DTD/svg10.dtd">
<svg version="1.0" xmlns="http://www.w3.org/2000/svg"
 width="500.000000pt" height="500.000000pt" viewBox="0 0 500.000000 500.000000"
 preserveAspectRatio="xMidYMid meet">

<g transform="translate(0.000000,500.000000) scale(0.100000,-0.100000)"
fill="#000000" stroke="none">
<path d="M561 3013 c-6 -21 -24 -105 -41 -188 -17 -82 -35 -168 -40 -190 -5
-22 -34 -159 -65 -305 -30 -146 -60 -281 -65 -301 -20 -72 -25 -69 128 -69
l139 0 35 163 35 162 319 6 c291 5 326 7 401 28 227 63 349 201 360 406 8 130
-37 208 -151 264 -116 57 -156 61 -623 61 l-422 0 -10 -37z m852 -187 c52 -26
67 -51 67 -114 0 -67 -21 -113 -72 -156 -65 -56 -127 -66 -423 -66 -140 0
-255 1 -255 3 0 2 9 43 20 93 11 49 27 125 36 169 9 44 18 83 21 88 3 5 132 7
287 5 250 -3 285 -5 319 -22z"/>
<path d="M1932 2898 l3 -153 228 -3 227 -2 0 -143 c0 -173 -14 -231 -65 -276
-52 -45 -100 -54 -250 -47 -71 3 -150 11 -174 16 -24 6 -46 9 -48 7 -7 -8 -23
-180 -23 -258 l0 -75 133 -17 c184 -24 407 -23 528 3 222 47 342 155 395 355
16 61 18 113 19 405 l0 335 -488 3 -488 2 3 -152z"/>
<path d="M3150 2506 l0 -546 468 0 c508 0 572 5 718 56 193 66 307 193 341
377 34 194 -16 368 -143 486 -70 66 -130 98 -260 138 l-89 27 -517 4 -518 3 0
-545z m848 224 c107 -25 162 -101 162 -221 0 -87 -21 -141 -69 -182 -52 -44
-117 -57 -278 -57 l-143 0 0 235 0 235 143 0 c78 0 161 -5 185 -10z"/>
</g>
</svg>
